<?xml version="1.0" encoding="utf-8"?>
<!-- Generator: Adobe Illustrator 16.0.0, SVG Export Plug-In . SVG Version: 6.00 Build 0)  -->
<!DOCTYPE svg PUBLIC "-//W3C//DTD SVG 1.1//EN" "http://www.w3.org/Graphics/SVG/1.1/DTD/svg11.dtd">
<svg version="1.1" id="图层_1" xmlns="http://www.w3.org/2000/svg" xmlns:xlink="http://www.w3.org/1999/xlink" x="0px" y="0px"
	 width="960px" height="560px" viewBox="0 0 960 560" enable-background="new 0 0 960 560" xml:space="preserve">
<g>
	<path d="M448.938,75.256l0.967,0.967c-7.677,7.383-13.945,15.293-18.809,23.73c-4.864,8.438-10.693,21.621-17.49,39.551
		l-25.664,67.148l10.459,9.141h-40.518l11.602-9.58l-32.168-91.582l-13.535-11.602h43.594l-12.393,12.393l29.004,82.529l3.428-8.174
		l-25.928-73.125l8.965-8.877l1.582,1.67l-7.822,7.734l24.346,69.521l18.633-49.746c5.566-14.766,8.35-25.106,8.35-31.025
		c0-5.977-2.197-11.103-6.592-15.381l1.67-0.352C427.668,86.917,440.441,81.936,448.938,75.256z M453.684,80.617l0.791,2.021
		c-11.192,8.731-22.734,28.652-34.629,59.766l-24.785,64.6L408.771,223H363.42l-1.934-2.373h42.1l-11.074-13.008l25.225-65.83
		l4.746-12.48c4.219-10.78,9.198-20.639,14.941-29.575C443.166,90.799,448.586,84.427,453.684,80.617z"/>
	<path d="M448.059,103.029h39.463c16.757,0,28.682,2.315,35.771,6.943c9.022,5.801,13.535,13.858,13.535,24.17
		c0,6.271-1.729,11.72-5.186,16.348c-3.458,4.629-8.292,7.969-14.502,10.02c-6.211,2.052-16.084,3.076-29.619,3.076h-10.811v42.539
		l10.723,9.668h-40.869l12.217-10.283v-35.244c-0.703-0.058-1.201-0.088-1.494-0.088c-4.219,0-8.262,0.909-12.129,2.725
		l-0.791-1.582c3.925-2.226,7.44-3.34,10.547-3.34h3.164l0.703-0.088v-4.307c-1.349-0.176-2.256-0.264-2.725-0.264
		c-6.271,0-11.28,1.524-15.029,4.57l-0.879-1.318c3.573-6.562,9.316-9.844,17.227-9.844h1.406v-43.066L448.059,103.029z
		 M532.346,112.434c3.573,1.758,6.445,4.849,8.613,9.272c2.167,4.425,3.252,9.448,3.252,15.073c0,12.715-4.922,21.856-14.766,27.422
		c-7.441,4.219-20.157,6.328-38.145,6.328c-2.988,0-5.508-0.058-7.559-0.176v36.299L497.541,223h-44.033l-2.373-2.373h41.396
		l-11.25-13.008V167.98c5.098,0.294,10.517,0.439,16.26,0.439c15.117,0,26.337-2.666,33.662-7.998
		c7.324-5.331,10.986-13.505,10.986-24.521c0-4.57-0.703-8.539-2.109-11.909C538.674,120.623,536.095,116.771,532.346,112.434z
		 M476.711,112.082v44.033h1.143l2.285,0.088c0.233,0,0.615-0.029,1.143-0.088v-39.199h9.668c7.5,0,12.788,0.659,15.864,1.978
		s5.698,4.058,7.866,8.218c-2.168-2.988-4.878-5.083-8.13-6.284c-3.252-1.2-7.837-1.802-13.755-1.802h-9.053v37.09
		c11.602,0,20.112-1.699,25.532-5.098c5.419-3.397,8.13-8.73,8.13-15.996c0-8.144-2.417-14.063-7.251-17.754
		s-12.612-5.537-23.335-5.537C484.063,111.73,480.695,111.849,476.711,112.082z"/>
	<path d="M649.855,103.029c-6.68,3.458-10.986,6.622-12.92,9.492c-2.931,4.454-4.395,11.162-4.395,20.127v5.713v77.432h-14.854
		l-41.484-80.508v47.725l-0.088,3.955l1.055,12.656c1.172,5.86,3.837,10.195,7.998,13.008l0.703,0.615
		c-8.086-2.694-12.129-11.338-12.129-25.928l0.088-8.262v-48.076l-4.746-9.229v50.625c0,16.055,1.055,26.573,3.164,31.553
		c2.109,4.981,7.061,8.613,14.854,10.898l7.646,8.174h-47.637l-1.406-2.373h44.033l-4.57-4.834h-40.957
		c7.148-2.578,11.895-6.034,14.238-10.371c2.343-4.335,3.516-11.777,3.516-22.324v-70.313l-11.689-9.756h44.473l-12.48,8.35
		l42.539,82.969v-10.547l-36.475-71.016l12.305-8.35l1.67,1.67l-10.898,7.383l33.398,65.566V138.01v-4.658
		c0-10.195-0.835-17.007-2.505-20.435s-5.787-6.724-12.349-9.888H649.855z M652.932,109.533l-1.582,2.637
		c-4.513,1.055-7.573,3.003-9.185,5.845c-1.612,2.843-2.417,7.633-2.417,14.37V223h-18.896l-1.143-2.373h17.666v-87.363
		c0-8.262,1.068-14.019,3.208-17.271C642.722,112.741,646.837,110.588,652.932,109.533z"/>
	<path d="M144.133,319.996c-3.047,4.102-5.479,8.38-7.295,12.832c-3.575,8.789-5.948,14.181-7.119,16.172l-0.439,0.527
		c-0.235-0.645-0.411-1.143-0.527-1.494c-1.641-5.273-2.988-8.935-4.043-10.986c-1.055-2.051-2.637-4.013-4.746-5.889
		c-5.333-4.746-11.397-7.119-18.193-7.119c-6.271,0-11.485,1.744-15.645,5.229c-4.161,3.486-6.24,7.866-6.24,13.14
		c0,9.844,7.412,16.554,22.236,20.127l14.854,3.604c21.151,5.098,31.729,16.26,31.729,33.486c0,9.61-3.619,17.681-10.854,24.214
		c-7.237,6.534-16.187,9.8-26.851,9.8c-6.68,0-14.15-1.024-22.412-3.076l-10.283-2.549c-4.161-0.996-7.589-1.494-10.283-1.494
		c-3.575,0-7.266,1.143-11.074,3.428l-0.703-1.23c7.265-10.956,12.362-21.387,15.293-31.289l1.582,0.439
		c1.23,9.199,4.922,16.348,11.074,21.445s14.208,7.646,24.17,7.646c7.851,0,14.091-1.815,18.721-5.449
		c4.628-3.633,6.943-8.525,6.943-14.678c0-7.089-3.223-12.949-9.668-17.578c-4.629-3.281-14.122-6.328-28.477-9.141
		c-11.074-2.167-19.103-5.771-24.082-10.811c-4.981-5.039-7.471-12.041-7.471-21.006c0-9.258,3.325-16.772,9.976-22.544
		c6.649-5.771,15.307-8.657,25.972-8.657c6.855,0,14.854,1.23,23.994,3.691c4.276,1.173,7.44,1.758,9.492,1.758
		c2.87,0,6.005-0.996,9.404-2.988L144.133,319.996z M144.133,376.07c7.968,6.035,11.953,14.297,11.953,24.785
		c0,11.192-4.337,20.669-13.008,28.433c-8.672,7.765-19.219,11.646-31.641,11.646c-6.328,0-12.041-0.646-17.139-1.934l-14.063-3.428
		c-3.282-0.82-6.798-1.23-10.547-1.23c-3.34,0-6.416,0.674-9.229,2.021l-1.055-2.549c3.046-1.406,6.152-2.109,9.316-2.109
		c3.516,0,7.528,0.527,12.041,1.582l13.535,3.252c5.39,1.289,11.074,1.934,17.051,1.934c11.718,0,21.694-3.735,29.927-11.206
		c8.231-7.471,12.349-16.509,12.349-27.114c0-8.965-3.164-16.816-9.492-23.555V376.07z M70.568,372.906l2.988,1.67
		c1.934,3.458,7.587,6.328,16.963,8.613l14.15,3.516c9.609,2.403,16.01,4.469,19.204,6.196c3.193,1.729,5.463,4.351,6.812,7.866
		l-0.615,0.352c-2.637-3.046-5.493-5.273-8.569-6.68s-8.98-3.134-17.71-5.186c-12.656-2.93-21.153-5.463-25.488-7.603
		C73.966,379.513,71.388,376.598,70.568,372.906z M81.555,401.383c2.167,10.547,7.968,18.018,17.402,22.412v0.703
		c-10.898-3.164-17.49-10.723-19.775-22.676L81.555,401.383z M123.918,341.178c-6.446-6.855-13.359-10.283-20.742-10.283
		c-4.454,0-8.145,1.289-11.074,3.867c-2.931,2.579-4.395,5.859-4.395,9.844c0,4.337,2.958,8.789,8.877,13.359l0.703,0.439
		l-0.439,0.703c-7.734-3.457-11.602-8.467-11.602-15.029c0-4.57,1.64-8.291,4.922-11.162c3.281-2.87,7.559-4.307,12.832-4.307
		c5.039,0,9.448,1.069,13.228,3.208c3.779,2.14,6.548,5.142,8.306,9.009L123.918,341.178z M149.582,323.688l-0.791,1.318
		c-2.403,4.043-4.454,7.91-6.152,11.602c-4.102,8.613-6.416,13.418-6.943,14.414l-0.439,0.615l-2.109-0.879l0.352-0.791
		c1.699-3.867,4.16-8.906,7.383-15.117l5.977-11.602l0.439-0.703L149.582,323.688z"/>
	<path d="M309.895,288.883c-8.145,8.965-14.282,17.9-18.413,26.807c-4.131,8.907-9.009,23.643-14.634,44.209l-15.205,55.371
		l1.758,6.855l10.811,9.668h-40.078l11.514-9.668l-15.557-56.338l-15.117,55.107L230.09,439h-44.912l-1.758-2.373h41.836
		l-13.184-15.205l16.611-60.117l-2.9-10.459l-18.018,65.83l1.406,5.449l10.283,9.668h-40.166l11.953-9.668l-25.576-92.021
		l-13.184-11.074h42.979l-12.041,11.074l20.127,72.422l3.076-10.635l-16.963-60.469l7.998-7.119l2.021,1.406l-7.295,6.504
		l15.381,55.283l18.809-68.467h8.262l22.852,82.793l2.813-9.932l-20.215-72.861h2.461l18.896,68.467l8.262-29.707
		c5.155-18.633,7.734-30.762,7.734-36.387c0-6.27-2.931-11.191-8.789-14.766c6.855-2.167,14.208-5.127,22.061-8.877
		c7.851-3.749,13.711-7.119,17.578-10.107L309.895,288.883z M315.168,295.563c-7.031,7.734-12.818,16.466-17.358,26.191
		c-4.542,9.727-9.185,23.321-13.931,40.781l-15.557,56.777L285.197,439h-45.088l-2.021-2.373h41.748l-14.238-16.436l16.172-58.887
		c4.804-17.46,9.404-30.894,13.799-40.298s10.253-18.383,17.578-26.938L315.168,295.563z"/>
	<path d="M303.654,319.029h41.66l-11.777,11.953v91.494l11.074,9.316h-40.957l12.217-10.107v-91.67L303.654,319.029z
		 M349.27,324.039l-8.965,8.877v89.561L355.07,439h-45.703l-2.197-2.373h42.715l-12.041-13.271v-91.23l9.932-9.844L349.27,324.039z"
		/>
	<path d="M456.672,319.029c-0.527,0.997-0.879,1.67-1.055,2.021l-5.977,10.547c-2.052,3.75-3.955,8.438-5.713,14.063l-0.176,0.439
		l-0.879-0.615l-0.264-1.143c-1.7-6.68-4.117-11.308-7.251-13.887c-3.135-2.578-7.925-3.867-14.37-3.867
		c-2.637,0-5.273,0.118-7.91,0.352h-1.055v95.273l10.371,9.58h-40.166l12.305-10.283v-87.451l-6.24-0.088
		c-6.035,0-10.327,1.187-12.876,3.56s-4.058,6.548-4.526,12.524h-2.285c0.645-6.855,2.417-11.631,5.317-14.326
		c2.9-2.694,7.69-4.043,14.37-4.043l5.273,0.088h0.967v-4.307c-2.988-0.352-5.831-0.527-8.525-0.527
		c-7.559,0-13.008,1.538-16.348,4.614s-5.186,8.276-5.537,15.601h-1.055c-2.52-8.144-6.416-17.227-11.689-27.246l-0.527-0.879
		H456.672z M438.742,338.277c-4.513-2.93-9.786-4.395-15.82-4.395c-1.349,0-2.755,0.088-4.219,0.264l0.352,88.33L433.029,439
		h-44.912l-2.021-2.373h42.1l-11.777-13.447v-91.582l4.746-0.088c5.683,0,9.712,0.454,12.085,1.362
		C435.622,333.781,437.453,335.583,438.742,338.277z M462.209,324.566c-4.043,5.156-8.292,13.711-12.744,25.664l-0.352,0.879
		l-1.934-1.67l0.264-0.791c4.336-12.129,8.525-20.566,12.568-25.313l0.439-0.527L462.209,324.566z"/>
	<path d="M555.197,321.754l-0.967,1.67c-5.273,9.199-9.844,18.399-13.711,27.598l-0.791,2.021l-1.143-0.615
		c-1.349-8.906-4.482-15.966-9.404-21.182c-4.922-5.215-10.869-7.822-17.842-7.822c-7.441,0-13.653,3.252-18.633,9.756
		c-6.271,8.086-9.404,21.797-9.404,41.133c0,16.642,2.886,29.678,8.657,39.111c5.771,9.435,13.784,14.15,24.038,14.15
		c8.203,0,14.751-2.738,19.644-8.218c4.892-5.479,7.808-13.315,8.745-23.511c0.233-2.461,1.23-3.691,2.988-3.691
		c2.285,0,3.428,1.904,3.428,5.713c0,5.684-1.289,11.572-3.867,17.666c-5.449,12.891-16.699,19.336-33.75,19.336
		c-15.235,0-27.334-5.347-36.299-16.04c-8.965-10.692-13.447-25.15-13.447-43.374c0-16.816,4.658-30.907,13.975-42.275
		c9.316-11.367,20.888-17.051,34.717-17.051c6.562,0,14.032,1.612,22.412,4.834c4.395,1.7,8.027,2.549,10.898,2.549
		c3.105,0,5.889-0.849,8.35-2.549L555.197,321.754z M558.361,397.34c-0.938,14.532-4.996,25.591-12.173,33.179
		c-7.178,7.589-17.213,11.382-30.103,11.382c-9.786,0-18.896-3.018-27.334-9.053v-0.703c7.5,4.922,16.553,7.383,27.158,7.383
		c11.602,0,21.063-3.721,28.389-11.162c3.573-3.633,6.21-7.704,7.91-12.217c1.699-4.512,2.842-10.488,3.428-17.93l0.176-2.021
		L558.361,397.34z M529.709,336.959c-5.332-4.276-10.371-6.416-15.117-6.416c-15.176,0-22.764,14.473-22.764,43.418
		c0,13.184,1.758,24.156,5.273,32.915c3.516,8.76,8.467,14.429,14.854,17.007v0.879c-6.914-1.406-12.437-6.724-16.567-15.952
		s-6.196-20.903-6.196-35.024c0-30.292,8.319-45.439,24.961-45.439c5.625,0,10.811,2.491,15.557,7.471V336.959z M561.613,325.973
		l-0.967,1.67c-6.387,10.898-11.484,20.83-15.293,29.795l-2.373-1.143l0.967-2.197c2.93-6.152,5.507-11.25,7.734-15.293l7.031-12.48
		l0.879-1.582L561.613,325.973z"/>
	<path d="M569.699,319.029h41.309l-11.953,11.689v37.969c1.348,0.234,2.93,0.41,4.746,0.527v-37.617l9.58-9.492l1.758,1.582
		l-9.053,8.965v36.65l2.9,0.264c4.512,0.41,8.877,0.615,13.096,0.615c6.094,0,11.338-0.293,15.732-0.879v-40.43l-10.723-9.844
		h40.605l-12.129,11.689v91.582l10.635,9.492h-40.43l12.041-10.283v-37.266c-4.922,1.173-9.99,1.758-15.205,1.758
		c-4.922,0-10.02-0.264-15.293-0.791l-1.23-0.088v37.178L620.588,439h-45.439l-2.285-2.373h42.891l-11.953-13.096v-40.43
		l2.549,0.176c7.734,0.586,13.329,0.879,16.787,0.879c5.625,0,10.517-0.761,14.678-2.285v-3.164
		c-5.508,0.821-11.924,1.23-19.248,1.23c-3.926,0-6.798-0.088-8.613-0.264l-8.877-0.791c-0.352-0.058-1.025-0.117-2.021-0.176
		v43.594l11.25,9.492h-40.605l11.777-10.283v-38.408c-4.922,0-8.848,1.934-11.777,5.801l-1.846-0.879
		c3.397-4.276,7.939-6.649,13.623-7.119v-3.252c-6.563,0-11.748,2.491-15.557,7.471l-1.318-0.879
		c3.457-8.438,9.082-13.417,16.875-14.941v-39.551L569.699,319.029z M671.389,323.951l-8.965,8.701v89.648L677.014,439h-45.615
		l-2.197-2.373h42.803l-11.777-13.271v-91.582l9.756-9.668L671.389,323.951z"/>
	<path d="M775.891,319.029l-1.406,1.67c-5.977,7.325-10.723,15.732-14.238,25.225c-0.586-1.348-1.025-2.343-1.318-2.988
		c-3.223-7.031-6.68-11.571-10.371-13.623c-3.691-2.051-10.313-3.076-19.863-3.076c-4.395,0-9.668,0.146-15.82,0.439v40.43h5.625
		v-35.771c4.452-0.409,8.701-0.615,12.744-0.615c7.44,0,12.92,0.791,16.436,2.373s6.649,4.658,9.404,9.229
		c-0.821-0.585-1.406-1.024-1.758-1.318c-4.746-3.749-8.174-5.977-10.283-6.68s-6.271-1.055-12.48-1.055
		c-1.876,0-5.216,0.118-10.02,0.352l-1.846,0.088v33.398h16.172l11.338-15.557v37.881l-11.338-14.678h-23.994v49.307h5.625v-45.176
		h19.072l2.285,2.285h-19.16v42.891c11.953,0,20.448-0.849,25.488-2.549c5.039-1.699,8.994-5.039,11.865-10.02l4.658-7.998
		c0.176-0.352,0.527-0.996,1.055-1.934c1.523,6.446,3.413,11.602,5.669,15.469c2.255,3.867,5.99,8.38,11.206,13.535h-98.525
		l13.359-10.195v-39.199c-4.922,0.586-9.375,2.109-13.359,4.57l-1.23-1.846c3.573-2.578,8.438-4.248,14.59-5.01v-4.131
		c-0.997-0.117-1.7-0.176-2.109-0.176c-5.977,0-11.426,2.197-16.348,6.592c2.694-9.374,8.847-14.063,18.457-14.063v-37.529
		l-13.359-10.547H775.891z M790.656,431.09l-4.57,7.91h-95.977l-1.406-2.373h96.24l2.988-5.537
		c-8.438-7.792-14.385-16.113-17.842-24.961l2.813,1.055c3.222,7.501,8.671,15,16.348,22.5L790.656,431.09z M754.27,354.449v38.848
		l-2.197-1.143v-38.848L754.27,354.449z M780.109,325.182l-0.615,0.791c-7.149,9.61-11.924,17.666-14.326,24.17l-1.494-1.846
		c3.925-9.082,8.994-17.402,15.205-24.961L780.109,325.182z"/>
	<path d="M796.633,329.576c13.887-8.027,28.828-12.041,44.824-12.041c12.422,0,22.661,2.695,30.718,8.086
		c8.056,5.392,12.085,12.247,12.085,20.566c0,6.798-2.637,12.818-7.91,18.062c-5.273,5.244-12.48,9.039-21.621,11.382
		c4.043,11.133,9.536,21.973,16.479,32.52s13.9,18.633,20.874,24.258l-1.318,0.439c-8.731,2.988-17.285,7.207-25.664,12.656
		l-1.318,0.879l-0.439-2.813c-3.75-22.676-8.995-41.894-15.732-57.656l-0.352-0.879c-4.043,1.876-9.463,3.37-16.26,4.482
		l-0.703,0.088v32.871L845.764,439h-45.439l-1.406-2.373h41.836l-12.744-13.535v-35.42l1.846-0.264
		c6.68-0.703,12.274-2.021,16.787-3.955c-0.352-0.703-0.558-1.143-0.615-1.318l-0.879-2.549c-0.059-0.176-0.206-0.527-0.439-1.055
		c-3.634,1.055-10.489,2.197-20.566,3.428l-0.967,0.176v39.199l10.02,10.459h-38.848l11.426-10.459v-29.531l-0.703,0.088
		c-3.398,0.762-6.475,1.612-9.229,2.549l-0.703,0.264l-0.791-1.758c2.578-0.996,4.6-1.67,6.064-2.021l4.658-1.143l0.703-0.176v-4.57
		c-3.458,0-7.765,0.762-12.92,2.285l-0.967,0.352c0.117-0.82,0.703-2.725,1.758-5.713c0.117-0.233,0.527-1.552,1.23-3.955
		c0.058-0.176,0.146-0.439,0.264-0.791c2.637,0.176,4.688,0.264,6.152,0.264c1.582,0,3.046-0.088,4.395-0.264v-43.242
		c-2.695-1.64-5.479-3.018-8.35-4.131L796.633,329.576z M823.176,327.291v47.373c1.699,0,3.31-0.146,4.834-0.439v-43.242
		c3.222-0.879,7.089-1.318,11.602-1.318c11.426,0,19.189,3.75,23.291,11.25c-4.337-3.516-8.145-5.933-11.426-7.251
		c-3.282-1.318-7.207-1.978-11.777-1.978c-3.574,0-6.71,0.352-9.404,1.055v41.484l0.967-0.176
		c11.543-2.109,20.112-5.435,25.708-9.976c5.595-4.54,8.394-10.444,8.394-17.71c0-6.504-2.52-11.879-7.559-16.128
		c-5.04-4.248-11.396-6.372-19.072-6.372C832.58,323.863,827.395,325.006,823.176,327.291z M865.627,380.025
		c3.691,12.071,10.225,23.877,19.6,35.42c5.858,7.207,13.271,13.682,22.236,19.424c-13.418,3.574-26.016,9.022-37.793,16.348
		l-0.791,0.527l-1.758-1.406c11.191-7.325,23.115-12.714,35.771-16.172c-16.875-11.25-30.146-29.237-39.814-53.965l-0.527-1.494
		c17.93-6.797,26.895-17.168,26.895-31.113c0-5.742-2.315-12.011-6.943-18.809c5.918,5.392,8.877,12.247,8.877,20.566
		C891.379,362.829,882.795,373.053,865.627,380.025z"/>
</g>
</svg>
